<?xml version="1.0" encoding="UTF-8" standalone="no"?>
<svg
   xmlns:dc="http://purl.org/dc/elements/1.1/"
   xmlns:cc="http://creativecommons.org/ns#"
   xmlns:rdf="http://www.w3.org/1999/02/22-rdf-syntax-ns#"
   xmlns:svg="http://www.w3.org/2000/svg"
   xmlns="http://www.w3.org/2000/svg"
   xmlns:sodipodi="http://sodipodi.sourceforge.net/DTD/sodipodi-0.dtd"
   xmlns:inkscape="http://www.inkscape.org/namespaces/inkscape"
   version="1.1"
   id="Layer_1"
   x="0px"
   y="0px"
   width="383"
   height="383"
   viewBox="0 0 383 383.00002"
   enable-background="new 0 0 383 291.3"
   xml:space="preserve"
   sodipodi:docname="icon-noazulapp.svg"
   inkscape:export-filename="C:\Users\STOCK\Códigos Fonte\React\noazulapp\icon-noazulapp.png"
   inkscape:export-xdpi="100.26109"
   inkscape:export-ydpi="100.26109"
   inkscape:version="1.0.2 (e86c870879, 2021-01-15, custom)"><metadata
   id="metadata183"><rdf:RDF><cc:Work
       rdf:about=""><dc:format>image/svg+xml</dc:format><dc:type
         rdf:resource="http://purl.org/dc/dcmitype/StillImage" /><dc:title></dc:title></cc:Work></rdf:RDF></metadata><defs
   id="defs181" /><sodipodi:namedview
   pagecolor="#ffffff"
   bordercolor="#666666"
   borderopacity="1"
   objecttolerance="10"
   gridtolerance="10"
   guidetolerance="10"
   inkscape:pageopacity="0"
   inkscape:pageshadow="2"
   inkscape:window-width="1920"
   inkscape:window-height="1017"
   id="namedview179"
   showgrid="false"
   inkscape:zoom="1.9399478"
   inkscape:cx="191.5"
   inkscape:cy="191.5"
   inkscape:window-x="-8"
   inkscape:window-y="-8"
   inkscape:window-maximized="1"
   inkscape:current-layer="Layer_1" />
<g
   id="g176"
   transform="translate(-0.42693285,45.599997)">
	<g
   id="g22">
		<g
   id="g6">
			<g
   id="g4">
				<path
   fill="#def6ff"
   d="M 346.7,159.3 C 346.7,73.6 277.2,4.1 191.5,4.1 105.8,4.1 36.2,73.6 36.2,159.3 c 0,22.8 5,44.5 13.8,64 h 282.8 c 8.9,-19.5 13.9,-41.1 13.9,-64 z"
   id="path2" />
			</g>
		</g>
		<g
   id="g20">
			<g
   id="g10">
				<path
   fill="#0050bf"
   d="M 340.8,225.3 H 38.2 c -1.1,0 -1.9,-0.9 -1.9,-1.9 0,-1 0.9,-1.9 1.9,-1.9 h 302.7 c 1.1,0 1.9,0.9 1.9,1.9 0,1 -0.9,1.9 -2,1.9 z"
   id="path8" />
			</g>
			<g
   id="g14">
				<path
   fill="#0050bf"
   d="m 30.4,225.3 h -9.7 c -1.1,0 -1.9,-0.9 -1.9,-1.9 0,-1 0.9,-1.9 1.9,-1.9 h 9.7 c 1.1,0 1.9,0.9 1.9,1.9 0,1 -0.8,1.9 -1.9,1.9 z"
   id="path12" />
			</g>
			<g
   id="g18">
				<path
   fill="#0050bf"
   d="m 358.3,225.3 h -9.7 c -1.1,0 -1.9,-0.9 -1.9,-1.9 0,-1 0.9,-1.9 1.9,-1.9 h 9.7 c 1.1,0 1.9,0.9 1.9,1.9 0,1 -0.8,1.9 -1.9,1.9 z"
   id="path16" />
			</g>
		</g>
	</g>
	<g
   id="g174">
		<g
   id="g26">
			<ellipse
   fill="#def6ff"
   cx="192.3"
   cy="281.60001"
   rx="61.099998"
   ry="6.0999999"
   id="ellipse24" />
		</g>
		<g
   id="g30">
			<path
   fill="#8fefff"
   d="m 268.1,227.8 v -78.2 c 0,-5.4 -4.4,-9.8 -9.8,-9.8 h -132 c -5.4,0 -9.8,4.4 -9.8,9.8 v 78.2 z"
   id="path28" />
		</g>
		<g
   id="g34">
			<path
   fill="#ffffff"
   d="m 136.1,227.8 88,-88 h -97.8 c -5.4,0 -9.8,4.4 -9.8,9.8 v 78.2 z"
   id="path32" />
		</g>
		<g
   id="g40">
			<path
   fill="#ffffff"
   d="m 268,227.8 v 19.6 c 0,5.4 -4.4,9.8 -9.8,9.8 h -132 c -5.4,0 -9.8,-4.4 -9.8,-9.8 v -19.6 z"
   id="path36" />
			<path
   fill="#0050bf"
   d="m 258.3,259.1 h -132 c -6.5,0 -11.7,-5.3 -11.7,-11.7 v -19.6 c 0,-1.1 0.9,-1.9 1.9,-1.9 H 268 c 1.1,0 1.9,0.9 1.9,1.9 v 19.6 c 0.1,6.5 -5.2,11.7 -11.6,11.7 z M 118.4,229.8 v 17.6 c 0,4.3 3.5,7.8 7.8,7.8 h 132 c 4.3,0 7.8,-3.5 7.8,-7.8 v -17.6 z"
   id="path38" />
		</g>
		<g
   id="g46">
			<path
   fill="#8fefff"
   d="m 197.2,242.5 c 0,2.7 -2.2,4.9 -4.9,4.9 -2.7,0 -4.9,-2.2 -4.9,-4.9 0,-2.7 2.2,-4.9 4.9,-4.9 2.7,0 4.9,2.2 4.9,4.9 z"
   id="path42" />
			<path
   fill="#0050bf"
   d="m 192.3,249.3 c -3.8,0 -6.8,-3.1 -6.8,-6.8 0,-3.8 3.1,-6.8 6.8,-6.8 3.7,0 6.8,3.1 6.8,6.8 0,3.8 -3.1,6.8 -6.8,6.8 z m 0,-9.7 c -1.6,0 -2.9,1.3 -2.9,2.9 0,1.6 1.3,3 2.9,3 1.6,0 3,-1.3 3,-3 -0.1,-1.6 -1.4,-2.9 -3,-2.9 z"
   id="path44" />
		</g>
		<g
   id="g52">
			<polygon
   fill="#ffffff"
   points="214.3,257.2 216.7,276.7 167.8,276.7 170.3,257.2 "
   id="polygon48" />
			<path
   fill="#0050bf"
   d="m 216.7,278.7 h -48.9 c -0.6,0 -1.1,-0.2 -1.5,-0.7 -0.4,-0.5 -0.5,-1 -0.5,-1.5 l 2.4,-19.6 c 0.1,-1 0.9,-1.7 1.9,-1.7 h 44 c 1,0 1.8,0.7 1.9,1.7 l 2.4,19.6 c 0.1,0.5 -0.1,1.1 -0.5,1.5 -0.4,0.4 -0.6,0.7 -1.2,0.7 z M 170,274.8 h 44.5 l -2,-15.7 H 172 Z"
   id="path50" />
		</g>
		<g
   id="g56">
			<path
   fill="#0050bf"
   d="m 231.4,278.7 h -78.2 c -1.1,0 -1.9,-0.9 -1.9,-1.9 0,-1.1 0.9,-1.9 1.9,-1.9 h 78.2 c 1.1,0 1.9,0.9 1.9,1.9 0,1 -0.8,1.9 -1.9,1.9 z"
   id="path54" />
		</g>
		<g
   id="g60">
			<path
   fill="#0050bf"
   d="M 268.1,229.8 H 116.5 c -1.1,0 -1.9,-0.9 -1.9,-1.9 v -78.2 c 0,-6.5 5.3,-11.7 11.7,-11.7 h 132 c 6.5,0 11.7,5.3 11.7,11.7 v 78.2 c 0,0.5 -0.2,1 -0.6,1.4 -0.4,0.4 -0.8,0.5 -1.3,0.5 z m -149.6,-3.9 h 147.7 v -76.3 c 0,-4.3 -3.5,-7.8 -7.8,-7.8 h -132 c -4.3,0 -7.8,3.5 -7.8,7.8 z"
   id="path58" />
		</g>
		<g
   id="g64">
			<path
   fill="#ffffff"
   d="m 221.6,183.8 c 0,16.2 -13.1,29.3 -29.3,29.3 -16.2,0 -29.3,-13.1 -29.3,-29.3 0,-16.2 13.1,-29.3 29.3,-29.3 16.2,0 29.3,13.1 29.3,29.3 z"
   id="path62" />
		</g>
		<g
   id="g70">
			<g
   id="g68">
				<path
   fill="#8fefff"
   d="m 187.4,201 c -1.9,0 -3.8,-0.7 -5.2,-2.1 l -9.8,-9.8 c -2.9,-2.9 -2.9,-7.5 0,-10.4 2.9,-2.9 7.5,-2.9 10.4,0 l 4.6,4.6 11.9,-11.9 c 2.9,-2.9 7.5,-2.9 10.4,0 2.9,2.9 2.9,7.5 0,10.4 l -17.1,17.1 c -1.5,1.3 -3.3,2.1 -5.2,2.1 z"
   id="path66" />
			</g>
		</g>
		<g
   id="g82">
			<g
   id="g74">
				<path
   fill="#0050bf"
   d="m 192.3,215.1 c -17.2,0 -31.3,-14 -31.3,-31.3 0,-17.3 14,-31.3 31.3,-31.3 17.3,0 31.3,14 31.3,31.3 0,17.3 -14.1,31.3 -31.3,31.3 z m 0,-58.7 c -15.1,0 -27.4,12.3 -27.4,27.4 0,15.1 12.3,27.4 27.4,27.4 15.1,0 27.4,-12.3 27.4,-27.4 0,-15.1 -12.3,-27.4 -27.4,-27.4 z"
   id="path72" />
			</g>
			<g
   id="g80">
				<g
   id="g78">
					<path
   fill="#0050bf"
   d="m 187.4,202.9 c -2.5,0 -4.8,-1 -6.6,-2.7 l -9.8,-9.8 c -3.6,-3.6 -3.6,-9.5 0,-13.1 3.6,-3.6 9.5,-3.6 13.1,0 l 3.2,3.2 10.6,-10.6 c 3.5,-3.5 9.6,-3.5 13.1,0 3.6,3.6 3.6,9.5 0,13.1 l -17.1,17.1 c -1.7,1.8 -4,2.8 -6.5,2.8 z m -9.8,-24.4 c -1.4,0 -2.8,0.5 -3.8,1.6 -2.1,2.1 -2.1,5.5 0,7.6 l 9.8,9.8 c 2,2 5.6,2 7.6,0 l 17.1,-17.1 c 2.1,-2.1 2.1,-5.5 0,-7.6 -2,-2 -5.6,-2 -7.6,0 l -11.9,11.9 c -0.8,0.8 -2,0.8 -2.7,0 l -4.6,-4.6 c -1.1,-1.1 -2.5,-1.6 -3.9,-1.6 z"
   id="path76" />
				</g>
			</g>
		</g>
		<g
   id="g108">
			<g
   id="g86">
				<path
   fill="#ffffff"
   d="m 111.7,116.6 c 0.6,2.2 -0.6,4.4 -2.8,5 L 22.7,146 c -2.2,0.6 -4.4,-0.6 -5,-2.8 L 3.8,94.6 c -0.6,-2.2 0.6,-4.4 2.8,-5 L 92.8,65.2 c 2.2,-0.6 4.4,0.6 5,2.8 z"
   id="path84" />
			</g>
			<g
   id="g90">
				<path
   fill="#ffffff"
   d="M 98,104.4 92.7,85.6 C 87.5,87 82.1,84 80.6,78.8 l -56.4,16 c 1.5,5.2 -1.5,10.6 -6.7,12.1 l 5.3,18.8 c 5.2,-1.5 10.6,1.5 12.1,6.7 l 56.4,-16 c -1.5,-5.2 1.6,-10.6 6.7,-12 z"
   id="path88" />
			</g>
			<g
   id="g94">
				<path
   fill="#8fefff"
   d="m 67.2,103 c 1.5,5.2 -1.5,10.6 -6.7,12.1 -5.2,1.5 -10.6,-1.5 -12.1,-6.7 -1.5,-5.2 1.5,-10.6 6.7,-12.1 5.2,-1.6 10.6,1.5 12.1,6.7 z"
   id="path92" />
			</g>
			<g
   id="g98">
				<path
   fill="#0050bf"
   d="m 57.8,117.3 c -5.1,0 -9.8,-3.4 -11.3,-8.5 -1.8,-6.2 1.9,-12.7 8.1,-14.5 3,-0.9 6.2,-0.5 8.9,1 2.7,1.5 4.7,4 5.6,7 v 0 c 1.8,6.2 -1.9,12.7 -8.1,14.5 -1.1,0.4 -2.2,0.5 -3.2,0.5 z m 0,-19.5 c -0.7,0 -1.4,0.1 -2.1,0.3 -4.2,1.2 -6.6,5.5 -5.4,9.7 1.2,4.2 5.5,6.6 9.7,5.4 4.2,-1.2 6.6,-5.5 5.4,-9.7 -0.6,-2 -1.9,-3.7 -3.7,-4.7 -1.3,-0.7 -2.6,-1 -3.9,-1 z"
   id="path96" />
			</g>
			<g
   id="g102">
				<path
   fill="#0050bf"
   d="m 34.9,134.4 c -0.8,0 -1.6,-0.6 -1.9,-1.4 -1.2,-4.2 -5.5,-6.6 -9.7,-5.4 -0.5,0.1 -1,0.1 -1.5,-0.2 -0.4,-0.3 -0.8,-0.7 -0.9,-1.2 l -5.3,-18.8 c -0.3,-1 0.3,-2.1 1.3,-2.4 4.2,-1.2 6.6,-5.5 5.4,-9.7 -0.3,-1 0.3,-2.1 1.3,-2.4 L 80,76.9 c 1,-0.3 2.1,0.3 2.4,1.3 1.2,4.2 5.5,6.6 9.7,5.4 0.5,-0.1 1,-0.1 1.5,0.2 0.5,0.3 0.8,0.7 0.9,1.2 l 5.3,18.8 c 0.3,1 -0.3,2.1 -1.3,2.4 -4.2,1.2 -6.6,5.5 -5.4,9.7 0.1,0.5 0.1,1 -0.2,1.5 -0.3,0.4 -0.7,0.8 -1.2,0.9 l -56.4,16 c -0.1,0 -0.3,0.1 -0.4,0.1 z m -9.4,-11 c 4.5,0 8.6,2.6 10.6,6.7 l 53,-15 c -0.5,-4.9 2.1,-9.7 6.6,-11.9 L 91.3,87.8 c -5,0.5 -9.7,-2.1 -11.9,-6.6 l -53,15 c 0.5,4.9 -2.1,9.7 -6.6,11.9 l 4.4,15.4 c 0.4,-0.1 0.8,-0.1 1.3,-0.1 z"
   id="path100" />
			</g>
			<g
   id="g106">
				<path
   fill="#0050bf"
   d="m 21.5,148.2 c -2.6,0 -5,-1.7 -5.8,-4.4 L 2,95.2 C 1.1,92 3,88.7 6.1,87.8 L 92.3,63.4 c 3.2,-0.9 6.5,1 7.4,4.1 l 13.8,48.6 c 0.4,1.5 0.2,3.2 -0.5,4.6 -0.8,1.4 -2.1,2.4 -3.6,2.8 l -86.2,24.4 c -0.6,0.2 -1.1,0.3 -1.7,0.3 z M 94,67 c -0.2,0 -0.4,0 -0.6,0.1 L 7.2,91.5 c -0.5,0.2 -1,0.5 -1.3,1 -0.3,0.5 -0.3,1.1 -0.2,1.6 l 13.8,48.6 c 0.2,0.5 0.5,1 1,1.3 0.5,0.3 1.1,0.4 1.6,0.2 l 86.2,-24.4 c 0.5,-0.2 1,-0.5 1.3,-1 0.3,-0.5 0.3,-1.1 0.2,-1.6 v 0 L 96,68.5 C 95.8,67.6 94.9,67 94,67 Z"
   id="path104" />
			</g>
		</g>
		<g
   id="g138">
			<g
   id="g112">
				<path
   fill="#ffffff"
   d="m 358,144.9 -68.9,-19.7 c -4.3,-1.2 -6.8,-5.8 -5.6,-10.1 l 11.7,-40.7 c 1.2,-4.3 5.8,-6.8 10.1,-5.6 l 68.9,19.7 c 4.3,1.2 6.8,5.8 5.6,10.1 l -11.7,40.7 c -1.3,4.4 -5.8,6.9 -10.1,5.6 z"
   id="path110" />
			</g>
			<g
   id="g116">
				
					<rect
   x="330.79999"
   y="48.799999"
   transform="matrix(0.2754,-0.9613,0.9613,0.2754,154.0513,389.8879)"
   fill="#8fefff"
   width="9.8000002"
   height="88"
   id="rect114" />
			</g>
			<g
   id="g120">
				<path
   fill="#0050bf"
   d="m 316.8,124.9 c -0.2,0 -0.4,0 -0.5,-0.1 l -23.5,-6.7 c -1,-0.3 -1.6,-1.4 -1.3,-2.4 0.3,-1 1.3,-1.6 2.4,-1.3 l 23.5,6.7 c 1,0.3 1.6,1.4 1.3,2.4 -0.3,0.9 -1,1.4 -1.9,1.4 z"
   id="path118" />
			</g>
			<g
   id="g124">
				
					<rect
   x="296"
   y="106.7"
   transform="matrix(0.9613,0.2754,-0.2754,0.9613,43.4861,-86.6289)"
   fill="#ffffff"
   width="68.400002"
   height="9.8000002"
   id="rect122" />
			</g>
			<g
   id="g128">
				<path
   fill="#0050bf"
   d="m 360.3,147.2 c -0.9,0 -1.9,-0.1 -2.8,-0.4 l -68.9,-19.7 c -5.4,-1.5 -8.5,-7.1 -6.9,-12.5 l 11.7,-40.7 c 1.5,-5.3 7.1,-8.5 12.5,-6.9 l 68.9,19.7 c 5.3,1.5 8.4,7.1 6.9,12.5 L 370,139.9 c -0.7,2.6 -2.4,4.7 -4.8,6 -1.6,0.9 -3.3,1.3 -4.9,1.3 z M 303,70.4 c -2.7,0 -5.2,1.8 -6,4.5 l -11.7,40.7 c -0.9,3.3 1,6.7 4.3,7.7 l 68.9,19.7 v 0 c 1.6,0.5 3.3,0.3 4.7,-0.5 1.5,-0.8 2.5,-2.1 3,-3.7 l 11.7,-40.7 c 0.9,-3.3 -1,-6.7 -4.3,-7.7 L 304.7,70.7 c -0.6,-0.2 -1.1,-0.3 -1.7,-0.3 z"
   id="path126" />
			</g>
			<g
   id="g132">
				<path
   fill="#0050bf"
   d="m 376.6,111.5 c -0.2,0 -0.4,0 -0.5,-0.1 L 291.5,87.2 c -1,-0.3 -1.6,-1.4 -1.3,-2.4 l 2.7,-9.4 c 0.1,-0.5 0.5,-0.9 0.9,-1.2 0.4,-0.2 1,-0.3 1.5,-0.2 l 84.6,24.2 c 1,0.3 1.6,1.4 1.3,2.4 l -2.7,9.4 c -0.1,0.5 -0.5,0.9 -0.9,1.2 -0.3,0.2 -0.7,0.3 -1,0.3 z M 294.4,84 l 80.9,23.2 1.6,-5.7 L 296,78.3 Z"
   id="path130" />
			</g>
			<g
   id="g136">
				<path
   fill="#0050bf"
   d="m 361.8,127.6 c -0.2,0 -0.4,0 -0.5,-0.1 l -65.8,-18.8 c -0.5,-0.1 -0.9,-0.5 -1.2,-0.9 -0.3,-0.4 -0.3,-1 -0.2,-1.5 l 2.7,-9.4 c 0.3,-1 1.3,-1.6 2.4,-1.3 l 65.8,18.9 c 0.5,0.1 0.9,0.5 1.2,0.9 0.3,0.4 0.3,1 0.2,1.5 l -2.7,9.4 c -0.3,0.8 -1,1.3 -1.9,1.3 z m -63.4,-22.1 62.1,17.8 1.6,-5.7 L 300,99.8 Z"
   id="path134" />
			</g>
		</g>
		<g
   id="g172">
			<g
   id="g170">
				<path
   fill="#ffffff"
   d="m 160.5,113.5 c -5.3,0 -9.4,-4.1 -9.4,-9.4 V 66.5 c 0,-5.3 4.1,-9.4 9.4,-9.4 H 232 c 5.3,0 9.4,4.1 9.4,9.4 v 37.6 c 0,5.3 -4.1,9.4 -9.4,9.4 z"
   id="path140" />
				<title
   id="title142">barcode</title>
				<path
   fill="#0050bf"
   d="m 160.6,113.5 c -5.3,0 -9.4,-4.1 -9.4,-9.4 V 66.4 c 0,-5.3 4.1,-9.4 9.4,-9.4 h 71.5 c 5.3,0 9.4,4.1 9.4,9.4 V 104 c 0,5.3 -4.1,9.4 -9.4,9.4 h -71.5 z m 0,-52.7 c -3,0 -5.6,2.6 -5.6,5.6 V 104 c 0,3 2.6,5.6 5.6,5.6 h 71.5 c 3,0 5.6,-2.6 5.6,-5.6 V 66.4 c 0,-3 -2.6,-5.6 -5.6,-5.6 z"
   id="path144" />
				<path
   fill="#0050bf"
   d="m 171.9,99.5 c -1.1,0 -1.9,-0.8 -1.9,-1.9 V 73.2 c 0,-1.1 0.8,-1.9 1.9,-1.9 1.1,0 1.9,0.8 1.9,1.9 v 24.5 c 0,0.7 -0.7,1.8 -1.9,1.8 z"
   id="path146" />
				<path
   fill="#0050bf"
   d="m 220.9,99.5 c -1.1,0 -1.9,-0.8 -1.9,-1.9 V 73.2 c 0,-1.1 0.8,-1.9 1.9,-1.9 1.1,0 1.9,0.8 1.9,1.9 v 24.5 c -0.1,0.7 -0.8,1.8 -1.9,1.8 z"
   id="path148" />
				<path
   fill="#0050bf"
   d="m 179.5,90.1 c -1.1,0 -1.9,-1.1 -1.9,-1.9 v -15 c 0,-1.1 0.8,-1.9 1.9,-1.9 1.1,0 1.9,0.8 1.9,1.9 v 15.1 c -0.1,0.7 -0.8,1.8 -1.9,1.8 z"
   id="path150" />
				<path
   fill="#0050bf"
   d="m 198.3,90.1 c -1.1,0 -1.9,-0.8 -1.9,-1.9 v -15 c 0,-1.1 0.8,-1.9 1.9,-1.9 1.1,0 1.9,0.8 1.9,1.9 v 15.1 c 0,0.7 -0.8,1.8 -1.9,1.8 z"
   id="path152" />
				<path
   fill="#0050bf"
   d="m 205.8,90.1 c -1.1,0 -1.9,-0.8 -1.9,-1.9 v -15 c 0,-1.1 0.8,-1.9 1.9,-1.9 1.1,0 1.9,0.8 1.9,1.9 v 15.1 c 0,0.7 -0.8,1.8 -1.9,1.8 z"
   id="path154" />
				<path
   fill="#0050bf"
   d="m 187,90.1 c -1.1,0 -1.9,-1.1 -1.9,-1.9 v -15 c 0,-1.1 0.8,-1.9 1.9,-1.9 1.1,0 1.9,0.8 1.9,1.9 v 15.1 c 0,0.7 -0.8,1.8 -1.9,1.8 z"
   id="path156" />
				<path
   fill="#0050bf"
   d="m 213.3,90.1 c -1.1,0 -1.9,-0.8 -1.9,-1.9 v -15 c 0,-1.1 0.8,-1.9 1.9,-1.9 1.1,0 1.9,0.8 1.9,1.9 v 15.1 c 0,0.7 -0.7,1.8 -1.9,1.8 z"
   id="path158" />
				<path
   fill="#0050bf"
   d="m 179.5,99.5 c -1.1,0 -1.9,-0.8 -1.9,-1.9 v -1.9 c 0,-1.1 0.8,-1.9 1.9,-1.9 1.1,0 1.9,0.8 1.9,1.9 v 1.9 c -0.1,0.8 -0.8,1.9 -1.9,1.9 z"
   id="path160" />
				<path
   fill="#0050bf"
   d="m 187,99.5 c -1.1,0 -1.9,-0.8 -1.9,-1.9 v -1.9 c 0,-1.1 0.8,-1.9 1.9,-1.9 1.1,0 1.9,0.8 1.9,1.9 v 1.9 c 0,0.8 -0.8,1.9 -1.9,1.9 z"
   id="path162" />
				<path
   fill="#0050bf"
   d="m 198.3,99.5 c -1.1,0 -1.9,-0.8 -1.9,-1.9 v -1.9 c 0,-1.1 0.8,-1.9 1.9,-1.9 1.1,0 1.9,0.8 1.9,1.9 v 1.9 c 0,0.8 -0.8,1.9 -1.9,1.9 z"
   id="path164" />
				<path
   fill="#0050bf"
   d="m 205.8,99.5 c -1.1,0 -1.9,-0.8 -1.9,-1.9 v -1.9 c 0,-1.1 0.8,-1.9 1.9,-1.9 1.1,0 1.9,0.8 1.9,1.9 v 1.9 c 0,0.8 -0.8,1.9 -1.9,1.9 z"
   id="path166" />
				<path
   fill="#0050bf"
   d="m 213.3,99.5 c -1.1,0 -1.9,-0.8 -1.9,-1.9 v -1.9 c 0,-1.1 0.8,-1.9 1.9,-1.9 1.1,0 1.9,0.8 1.9,1.9 v 1.9 c 0,0.8 -0.7,1.9 -1.9,1.9 z"
   id="path168" />
			</g>
		</g>
	</g>
</g>
</svg>
